<svg aria-hidden="true" style="position: absolute; width: 0; height: 0; overflow: hidden;" version="1.1" xmlns="http://www.w3.org/2000/svg" xmlns:xlink="http://www.w3.org/1999/xlink">
<defs>
<symbol id="icon-calendar" viewBox="0 0 32 32">
<path d="M26.667 4h-1.333v-2.667h-2.667v2.667h-13.333v-2.667h-2.667v2.667h-1.333c-1.467 0-2.667 1.2-2.667 2.667v21.333c0 1.467 1.2 2.667 2.667 2.667h21.333c1.467 0 2.667-1.2 2.667-2.667v-21.333c0-1.467-1.2-2.667-2.667-2.667zM26.667 28h-21.333v-14.667h21.333v14.667zM26.667 10.667h-21.333v-4h21.333v4z"></path>
</symbol>
<symbol id="icon-chevron-left" viewBox="0 0 32 32">
<path d="M20.547 9.88l-1.88-1.88-8 8 8 8 1.88-1.88-6.107-6.12z"></path>
</symbol>
<symbol id="icon-edit" viewBox="0 0 32 32">
<path d="M4 23v5h5l14.747-14.747-5-5-14.747 14.747zM27.613 9.387c0.52-0.52 0.52-1.36 0-1.88l-3.12-3.12c-0.52-0.52-1.36-0.52-1.88 0l-2.44 2.44 5 5 2.44-2.44z"></path>
</symbol>
<symbol id="icon-facebook" viewBox="0 0 28 32">
<path d="M28 3.544v24.906c0 0.856-0.694 1.544-1.544 1.544h-7.137v-10.837h3.637l0.544-4.225h-4.188v-2.7c0-1.225 0.337-2.056 2.094-2.056h2.238v-3.781c-0.387-0.050-1.712-0.169-3.262-0.169-3.225 0-5.438 1.969-5.438 5.588v3.119h-3.65v4.225h3.65v10.844h-13.4c-0.85 0-1.544-0.694-1.544-1.544v-24.913c0-0.85 0.694-1.544 1.544-1.544h24.906c0.856 0 1.55 0.694 1.55 1.544z"></path>
</symbol>
<symbol id="icon-group" viewBox="0 0 32 32">
<path d="M12 18.333c-3.12 0-9.333 1.56-9.333 4.667v2.333h18.667v-2.333c0-3.107-6.213-4.667-9.333-4.667zM5.787 22.667c1.12-0.773 3.827-1.667 6.213-1.667s5.093 0.893 6.213 1.667h-12.427zM12 16c2.573 0 4.667-2.093 4.667-4.667s-2.093-4.667-4.667-4.667-4.667 2.093-4.667 4.667 2.093 4.667 4.667 4.667zM12 9.333c1.107 0 2 0.893 2 2s-0.893 2-2 2-2-0.893-2-2 0.893-2 2-2zM21.387 18.413c1.547 1.12 2.613 2.613 2.613 4.587v2.333h5.333v-2.333c0-2.693-4.667-4.227-7.947-4.587zM20 16c2.573 0 4.667-2.093 4.667-4.667s-2.093-4.667-4.667-4.667c-0.72 0-1.387 0.173-2 0.467 0.84 1.187 1.333 2.64 1.333 4.2s-0.493 3.013-1.333 4.2c0.613 0.293 1.28 0.467 2 0.467z"></path>
</symbol>
<symbol id="icon-help" viewBox="0 0 32 32">
<path d="M14.667 24h2.667v-2.667h-2.667v2.667zM16 2.667c-7.36 0-13.333 5.973-13.333 13.333s5.973 13.333 13.333 13.333 13.333-5.973 13.333-13.333-5.973-13.333-13.333-13.333zM16 26.667c-5.88 0-10.667-4.787-10.667-10.667s4.787-10.667 10.667-10.667 10.667 4.787 10.667 10.667-4.787 10.667-10.667 10.667zM16 8c-2.947 0-5.333 2.387-5.333 5.333h2.667c0-1.467 1.2-2.667 2.667-2.667s2.667 1.2 2.667 2.667c0 2.667-4 2.333-4 6.667h2.667c0-3 4-3.333 4-6.667 0-2.947-2.387-5.333-5.333-5.333z"></path>
</symbol>
<symbol id="icon-instagram" viewBox="0 0 28 32">
<path d="M14.006 8.813c-3.975 0-7.181 3.206-7.181 7.181s3.206 7.181 7.181 7.181 7.181-3.206 7.181-7.181-3.206-7.181-7.181-7.181zM14.006 20.663c-2.569 0-4.669-2.094-4.669-4.669s2.094-4.669 4.669-4.669 4.669 2.094 4.669 4.669-2.1 4.669-4.669 4.669zM23.156 8.519c0 0.931-0.75 1.675-1.675 1.675-0.931 0-1.675-0.75-1.675-1.675s0.75-1.675 1.675-1.675 1.675 0.75 1.675 1.675zM27.913 10.219c-0.106-2.244-0.619-4.231-2.262-5.869-1.637-1.638-3.625-2.15-5.869-2.263-2.313-0.131-9.244-0.131-11.556 0-2.237 0.106-4.225 0.619-5.869 2.256s-2.15 3.625-2.263 5.869c-0.131 2.313-0.131 9.244 0 11.556 0.106 2.244 0.619 4.231 2.263 5.869s3.625 2.15 5.869 2.262c2.313 0.131 9.244 0.131 11.556 0 2.244-0.106 4.231-0.619 5.869-2.262 1.637-1.637 2.15-3.625 2.262-5.869 0.131-2.313 0.131-9.238 0-11.55zM24.925 24.25c-0.488 1.225-1.431 2.169-2.663 2.663-1.844 0.731-6.219 0.563-8.256 0.563s-6.419 0.163-8.256-0.563c-1.225-0.488-2.169-1.431-2.663-2.663-0.731-1.844-0.563-6.219-0.563-8.256s-0.163-6.419 0.563-8.256c0.487-1.225 1.431-2.169 2.663-2.662 1.844-0.731 6.219-0.563 8.256-0.563s6.419-0.162 8.256 0.563c1.225 0.487 2.169 1.431 2.663 2.662 0.731 1.844 0.563 6.219 0.563 8.256s0.169 6.419-0.563 8.256z"></path>
</symbol>
<symbol id="icon-key" viewBox="0 0 32 32">
<path d="M16.867 13.333c-1.093-3.107-4.053-5.333-7.533-5.333-4.413 0-8 3.587-8 8s3.587 8 8 8c3.48 0 6.44-2.227 7.533-5.333h5.8v5.333h5.333v-5.333h2.667v-5.333h-13.8zM9.333 18.667c-1.467 0-2.667-1.2-2.667-2.667s1.2-2.667 2.667-2.667 2.667 1.2 2.667 2.667-1.2 2.667-2.667 2.667z"></path>
</symbol>
<symbol id="icon-logout" viewBox="0 0 32 32">
<path d="M13.453 20.787l1.88 1.88 6.667-6.667-6.667-6.667-1.88 1.88 3.44 3.453h-12.893v2.667h12.893l-3.44 3.453zM25.333 4h-18.667c-1.48 0-2.667 1.2-2.667 2.667v5.333h2.667v-5.333h18.667v18.667h-18.667v-5.333h-2.667v5.333c0 1.467 1.187 2.667 2.667 2.667h18.667c1.467 0 2.667-1.2 2.667-2.667v-18.667c0-1.467-1.2-2.667-2.667-2.667z"></path>
</symbol>
<symbol id="icon-menu" viewBox="0 0 32 32">
<path d="M4 24h24v-2.667h-24v2.667zM4 17.333h24v-2.667h-24v2.667zM4 8v2.667h24v-2.667h-24z"></path>
</symbol>
<symbol id="icon-person" viewBox="0 0 32 32">
<path d="M18.667 5.333c0 1.473-1.194 2.667-2.667 2.667s-2.667-1.194-2.667-2.667c0-1.473 1.194-2.667 2.667-2.667s2.667 1.194 2.667 2.667z"></path>
<path d="M21.187 10.813c-0.52-0.52-1.413-1.48-3.147-1.48-0.28 0-1.893 0-3.387 0-3.667-0.013-6.653-3-6.653-6.667h-2.667c0 4.213 2.813 7.787 6.667 8.947v17.72h2.667v-8h2.667v8h2.667v-15.933l5.267 5.267 1.88-1.88-5.96-5.973z"></path>
</symbol>
<symbol id="icon-twitter-square" viewBox="0 0 28 32">
<path d="M25 2h-22c-1.656 0-3 1.344-3 3v22c0 1.656 1.344 3 3 3h22c1.656 0 3-1.344 3-3v-22c0-1.656-1.344-3-3-3zM21.944 11.925c0.012 0.175 0.012 0.356 0.012 0.531 0 5.419-4.125 11.662-11.662 11.662-2.325 0-4.481-0.675-6.294-1.837 0.331 0.038 0.65 0.050 0.987 0.050 1.919 0 3.681-0.65 5.088-1.75-1.8-0.038-3.313-1.219-3.831-2.844 0.631 0.094 1.2 0.094 1.85-0.075-1.875-0.381-3.281-2.031-3.281-4.025v-0.050c0.544 0.306 1.181 0.494 1.85 0.519-1.107-0.744-1.825-1.991-1.825-3.406 0-0.002 0-0.005 0-0.007v0c0-0.762 0.2-1.463 0.556-2.069 2.019 2.487 5.050 4.112 8.45 4.287-0.581-2.781 1.5-5.037 4-5.037 1.181 0 2.244 0.494 2.994 1.294 0.925-0.175 1.813-0.519 2.6-0.988-0.306 0.95-0.95 1.75-1.8 2.256 0.825-0.088 1.625-0.319 2.363-0.637-0.556 0.819-1.256 1.544-2.056 2.125z"></path>
</symbol>
<symbol id="icon-world" viewBox="0 0 32 32">
<path d="M16 2.667c-7.36 0-13.333 5.973-13.333 13.333s5.973 13.333 13.333 13.333 13.333-5.973 13.333-13.333-5.973-13.333-13.333-13.333zM5.333 16c0-0.813 0.107-1.613 0.28-2.373l6.373 6.373v1.333c0 1.467 1.2 2.667 2.667 2.667v2.573c-5.24-0.667-9.32-5.147-9.32-10.573zM23.853 23.2c-0.347-1.080-1.333-1.867-2.533-1.867h-1.333v-4c0-0.733-0.6-1.333-1.333-1.333h-8v-2.667h2.667c0.733 0 1.333-0.6 1.333-1.333v-2.667h2.667c1.467 0 2.667-1.2 2.667-2.667v-0.547c3.907 1.573 6.68 5.413 6.68 9.88 0 2.773-1.080 5.307-2.813 7.2z"></path>
</symbol>
</defs>
</svg>
